<?xml version="1.0" encoding="utf-8"?>
<!-- Generator: Adobe Illustrator 27.9.0, SVG Export Plug-In . SVG Version: 6.00 Build 0)  -->
<svg version="1.1" id="Layer_1" xmlns="http://www.w3.org/2000/svg" xmlns:xlink="http://www.w3.org/1999/xlink" x="0px" y="0px"
	 viewBox="0 0 640 640" style="enable-background:new 0 0 640 640;" xml:space="preserve">
<style type="text/css">
	.st0{opacity:0.2;}
	.st1{fill:#F5F5F5;}
	.st2{fill:#212224;}
	.st3{opacity:0.35;}
</style>
<path class="st2" d="M1,192.4l75.1,120.1L128.8,211c0,0,17-3.1,21.7-18.6H1z"/>
<path class="st2" d="M639,492.9l-75.1-120.1l-52.7,101.5c0,0-17,3.1-21.7,18.6H639z"/>
<path class="st2" d="M237.2,192.4l-3.1,14.7h7.7L135,413.9l50.4,79l148-283.5c0,0,17,0.8,23.2-17H237.2z"/>
<path class="st2" d="M430.9,192.4l-3.1,13.2h7L331,412.4l48,80.6l148-282c0,0,11.6,1.5,24.8-18.6H430.9z"/>
</svg>
